<mxfile host="65bd71144e">
    <diagram id="DzG-XRrdM19JjrLdrYKo" name="Tree Structure">
        <mxGraphModel dx="1745" dy="1243" grid="1" gridSize="10" guides="1" tooltips="1" connect="1" arrows="1" fold="1" page="1" pageScale="1" pageWidth="850" pageHeight="1100" math="0" shadow="0">
            <root>
                <mxCell id="0"/>
                <mxCell id="1" parent="0"/>
                <mxCell id="96" value="graph TD;&#10;    1--&gt;2;&#10;    1--&gt;3;&#10;    2--&gt;4;&#10;    2--&gt;5;&#10;    3--&gt;6;&#10;    3--&gt;7;" style="shadow=0;dashed=0;align=left;strokeWidth=1;shape=mxgraph.mermaid.abstract.mermaid;labelBackgroundColor=#ffffff;noLabel=1;theme=default;" vertex="1" parent="1">
                    <mxGeometry x="60" y="60" width="510" height="470" as="geometry"/>
                </mxCell>
            </root>
        </mxGraphModel>
    </diagram>
</mxfile>